HIERARCHY
ROOT Hips
{
 OFFSET 0.000000 0.000000 0.000000
 CHANNELS 6 Xposition Yposition Zposition Yrotation Xrotation Zrotation
 JOINT Chest
 {
  OFFSET 0.000000 9.303000 0.001900
  CHANNELS 3 Yrotation Xrotation Zrotation
  JOINT Chest2
  {
   OFFSET 0.000000 9.301100 -0.003900
   CHANNELS 3 Yrotation Xrotation Zrotation
   JOINT Chest3
   {
    OFFSET 0.000000 9.262800 0.000000
    CHANNELS 3 Yrotation Xrotation Zrotation
    JOINT Chest4
    {
     OFFSET 0.000000 9.253300 0.000000
     CHANNELS 3 Yrotation Xrotation Zrotation
     JOINT Neck
     {
      OFFSET 0.000000 14.010300 0.000000
      CHANNELS 3 Yrotation Xrotation Zrotation
      JOINT Head
      {
       OFFSET 0.000000 8.657600 -0.008300
       CHANNELS 3 Yrotation Xrotation Zrotation
       End Site
       {
        OFFSET 0.000000 16.540200 -0.004400
       }
      }
     }
     JOINT RightCollar
     {
      OFFSET -2.834100 9.267700 0.000000
      CHANNELS 3 Yrotation Xrotation Zrotation
      JOINT RightShoulder
      {
       OFFSET -13.135200 0.000000 0.000000
       CHANNELS 3 Yrotation Xrotation Zrotation
       JOINT RightElbow
       {
        OFFSET 0.000000 -28.893500 0.000000
        CHANNELS 3 Yrotation Xrotation Zrotation
        JOINT RightWrist
        {
         OFFSET 0.000000 -23.344000 0.000000
         CHANNELS 3 Yrotation Xrotation Zrotation
         End Site
         {
          OFFSET 0.000000 -17.223000 0.000000
         }
        }
       }
      }
     }
     JOINT LeftCollar
     {
      OFFSET 2.834100 9.267700 0.000000
      CHANNELS 3 Yrotation Xrotation Zrotation
      JOINT LeftShoulder
      {
       OFFSET 13.135200 0.000000 0.000000
       CHANNELS 3 Yrotation Xrotation Zrotation
       JOINT LeftElbow
       {
        OFFSET 0.000000 -28.893500 0.000000
        CHANNELS 3 Yrotation Xrotation Zrotation
        JOINT LeftWrist
        {
         OFFSET 0.000000 -23.344000 0.000000
         CHANNELS 3 Yrotation Xrotation Zrotation
         End Site
         {
          OFFSET 0.000000 -17.223000 0.000000
         }
        }
       }
      }
     }
    }
   }
  }
 }
 JOINT RightHip
 {
  OFFSET -7.547200 -0.009500 -0.001000
  CHANNELS 3 Yrotation Xrotation Zrotation
  JOINT RightKnee
  {
   OFFSET 0.000000 -39.762800 0.000900
   CHANNELS 3 Yrotation Xrotation Zrotation
   JOINT RightAnkle
   {
    OFFSET 0.000000 -38.588200 0.001600
    CHANNELS 3 Yrotation Xrotation Zrotation
    JOINT RightToe
    {
     OFFSET 0.000000 -4.693300 10.419700
     CHANNELS 3 Yrotation Xrotation Zrotation
     End Site
     {
      OFFSET 0.000000 -1.379900 5.669300
     }
    }
   }
  }
 }
 JOINT LeftHip
 {
  OFFSET 7.547200 -0.009500 -0.001000
  CHANNELS 3 Yrotation Xrotation Zrotation
  JOINT LeftKnee
  {
   OFFSET 0.000000 -39.762800 0.000900
   CHANNELS 3 Yrotation Xrotation Zrotation
   JOINT LeftAnkle
   {
    OFFSET 0.000000 -38.588200 0.001600
    CHANNELS 3 Yrotation Xrotation Zrotation
    JOINT LeftToe
    {
     OFFSET 0.000000 -4.693300 10.419700
     CHANNELS 3 Yrotation Xrotation Zrotation
     End Site
     {
      OFFSET 0.000000 -1.379900 5.669300
     }
    }
   }
  }
 }
}
MOTION
Frames: 9
Frame Time: 0.008333
0.000000 82.880600 0.000000 0.000000 -5.767877 0.000000 0.000000 11.653817 0.000000 0.000000 -5.885947 0.000000 0.000000 -0.000000 0.000000 0.000000 -0.000000 0.000000 0.000000 12.528835 0.000000 0.000000 0.711642 0.000000 0.000000 -0.000000 0.000000 0.000000 0.000000 -90.000000 0.000000 -2.309062 0.000000 0.000000 2.309062 0.000000 0.000000 -0.000000 0.000000 0.000000 -0.000000 90.000000 0.000000 -2.309062 0.000000 0.000000 2.309062 0.000000 0.000000 8.520406 0.000000 0.000000 1.905762 0.000000 -0.000000 -4.658285 0.000000 0.000000 -0.000000 0.000000 0.000000 8.520406 0.000000 0.000000 1.905762 0.000000 -0.000000 -4.658285 0.000000 0.000000 -0.000000 0.000000
1.186773 45.886736 9.125730 173.762141 -11.218087 0.079451 -0.917282 8.665014 -0.108874 -0.044328 0.450450 0.011654 -0.078721 0.789823 0.018318 -0.787995 8.111043 0.159848 -2.321286 21.091806 0.361331 -2.567834 -3.246454 0.913643 2.399126 5.128730 -5.042788 -6.132928 -5.433695 -2.191825 172.343281 -82.008980 -154.976606 -7.893320 -9.053364 -28.364061 -8.788984 3.968249 -3.193649 17.799367 -7.021661 6.723446 69.095769 -70.814476 -94.663006 6.050655 0.330360 11.211408 -24.881622 -77.054825 10.769839 -131.154953 84.132649 -132.540261 -9.868303 -10.707877 -1.291217 -0.002601 -0.182991 -0.016699 -5.721020 -75.933010 18.103082 89.712558 76.937565 87.961361 -11.385406 -7.456507 0.702033 0.072333 0.267161 0.042565
1.185497 45.888155 9.125933 173.763118 -11.222352 0.086932 -0.922064 8.676026 -0.119194 -0.046663 0.456275 0.010674 -0.074271 0.779043 0.020781 -0.786171 8.119878 0.156130 -2.322543 21.092844 0.362364 -2.569657 -3.230722 0.908823 2.396352 5.128825 -5.050128 -6.137007 -5.439790 -2.181743 172.322457 -82.014491 -154.954082 -7.884043 -9.039264 -28.364275 -8.779894 3.973724 -3.193089 17.804915 -7.027699 6.717483 69.114776 -70.805605 -94.694217 6.043897 0.330888 11.205173 -24.862880 -77.048755 10.748639 -131.060148 84.137021 -132.432631 -10.024272 -10.716393 -1.281758 -0.022847 -0.178010 -0.019048 -5.689071 -75.928162 18.070466 89.700452 76.937065 87.948336 -11.390566 -7.450610 0.697802 0.062672 0.264579 0.044414
1.188988 45.889198 9.129089 173.743930 -11.211080 0.067034 -0.902845 8.676572 -0.098310 -0.043932 0.452384 0.011326 -0.077546 0.777904 0.022237 -0.780226 8.143056 0.149307 -2.327257 21.112101 0.355152 -2.565495 -3.269598 0.922510 2.393978 5.101610 -5.046448 -6.149342 -5.421075 -2.186647 172.127732 -82.037623 -154.759945 -7.894908 -9.075682 -28.352311 -8.757948 3.959994 -3.194874 17.792823 -7.038084 6.721378 69.123867 -70.808265 -94.715760 6.048274 0.328245 11.209476 -24.960918 -77.048259 10.848071 -131.164237 84.147632 -132.541762 -9.904112 -10.709473 -1.304433 0.002613 -0.182613 -0.007022 -5.769347 -75.937453 18.174395 89.700505 76.935565 87.946952 -11.383102 -7.451800 0.696238 0.057980 0.268016 0.043548
1.191025 45.890386 9.131474 173.730024 -11.202567 0.055437 -0.886791 8.678160 -0.086703 -0.044094 0.447087 0.012922 -0.075576 0.781466 0.021374 -0.779131 8.157612 0.145030 -2.331074 21.117987 0.353783 -2.564870 -3.262708 0.920196 2.394661 5.087279 -5.055277 -6.161951 -5.409354 -2.181102 172.096229 -82.043011 -154.726496 -7.899830 -9.097169 -28.347881 -8.751296 3.944313 -3.188650 17.790696 -7.040492 6.720678 69.134946 -70.805149 -94.730064 6.052694 0.325909 11.217610 -25.017419 -77.048475 10.903761 -131.231740 84.157797 -132.609610 -9.808798 -10.703473 -1.323667 0.027505 -0.185155 0.002540 -5.815386 -75.944825 18.237629 89.702929 76.932938 87.946263 -11.376531 -7.451258 0.697108 0.057006 0.270201 0.039702
1.190901 45.891907 9.131526 173.727987 -11.205488 0.056291 -0.884796 8.693585 -0.090103 -0.045052 0.440380 0.014012 -0.074860 0.806463 0.015844 -0.775998 8.155751 0.144995 -2.331515 21.104694 0.358453 -2.573628 -3.243533 0.916827 2.388342 5.068227 -5.061962 -6.159125 -5.404456 -2.179761 172.061545 -82.053430 -154.697726 -7.893096 -9.099934 -28.351776 -8.748649 3.920664 -3.178324 17.788607 -7.043258 6.721197 69.128237 -70.784618 -94.724485 6.039587 0.321590 11.224829 -25.006304 -77.044317 10.887062 -131.204741 84.156600 -132.572226 -9.796524 -10.705607 -1.333577 0.040001 -0.185071 0.005895 -5.808607 -75.941515 18.233696 89.702725 76.931555 87.944093 -11.375494 -7.449650 0.697313 0.054982 0.268764 0.040441
1.188802 45.893644 9.129630 173.732298 -11.217278 0.069323 -0.892125 8.715579 -0.106221 -0.042915 0.459616 0.010391 -0.076951 0.790470 0.018957 -0.774635 8.172810 0.139590 -2.329374 21.090987 0.362521 -2.578061 -3.223945 0.910768 2.381427 5.045492 -5.076620 -6.150728 -5.394142 -2.174151 172.037761 -82.063093 -154.682084 -7.884996 -9.083417 -28.372182 -8.746385 3.896896 -3.167610 17.794611 -7.044847 6.716650 69.111143 -70.777872 -94.719060 6.029297 0.315460 11.229422 -24.935044 -77.037591 10.812233 -131.160226 84.155674 -132.517358 -9.855008 -10.709953 -1.328304 0.017414 -0.184139 0.000106 -5.751801 -75.930449 18.170806 89.706864 76.931553 87.947995 -11.380123 -7.446264 0.696030 0.064483 0.264305 0.039971
1.188473 45.895043 9.128867 173.728014 -11.221253 0.072360 -0.889084 8.723189 -0.109140 -0.041263 0.466852 0.009519 -0.078613 0.784283 0.019637 -0.773967 8.183136 0.136564 -2.332814 21.138936 0.346889 -2.575341 -3.252621 0.920527 2.381703 5.038441 -5.098142 -6.142543 -5.382785 -2.167464 172.095849 -82.061946 -154.753765 -7.887287 -9.080678 -28.377687 -8.751443 3.893280 -3.168058 17.789339 -7.056622 6.713559 69.100885 -70.777308 -94.700313 6.037643 0.320847 11.229958 -24.916003 -77.033820 10.794096 -131.146278 84.157422 -132.496180 -9.841947 -10.707736 -1.336071 0.017582 -0.186714 0.000363 -5.737548 -75.927277 18.159338 89.721017 76.931466 87.961231 -11.377864 -7.446368 0.698155 0.059379 0.261675 0.036352
1.192916 45.895742 9.131372 173.704202 -11.206370 0.047433 -0.857638 8.721006 -0.079853 -0.043923 0.458069 0.010508 -0.076183 0.797043 0.018064 -0.780164 8.209892 0.128305 -2.327948 21.128599 0.348906 -2.567722 -3.226681 0.907364 2.383499 5.002664 -5.116179 -6.132314 -5.375270 -2.159008 172.155567 -82.065878 -154.825977 -7.887608 -9.065596 -28.371538 -8.742949 3.856729 -3.156258 17.779643 -7.064630 6.718653 69.085165 -70.768181 -94.680697 6.047325 0.314839 11.240206 -25.040702 -77.034746 10.922304 -131.350450 84.174342 -132.714810 -9.608188 -10.692464 -1.367418 0.069019 -0.194598 0.014738 -5.833949 -75.939848 18.285031 89.735870 76.933620 87.975245 -11.369619 -7.455367 0.706814 0.050283 0.267915 0.027570
